<?xml version="1.0" encoding="UTF-8" standalone="no"?><!DOCTYPE svg PUBLIC "-//W3C//DTD SVG 1.1//EN" "http://www.w3.org/Graphics/SVG/1.1/DTD/svg11.dtd"><svg width="100%" height="100%" viewBox="0 0 86 98" version="1.1" xmlns="http://www.w3.org/2000/svg" xmlns:xlink="http://www.w3.org/1999/xlink" xml:space="preserve" style="fill-rule:evenodd;clip-rule:evenodd;stroke-linejoin:round;stroke-miterlimit:1.41421;"><g><path d="M58.635,64.618l0,6.58l1.625,0c2.591,0 2.969,-2.1 2.969,-3.365c0,-0.852 -0.265,-3.215 -3.271,-3.215l-1.323,0Z" style="fill:#a6b9d5;fill-rule:nonzero;"/><path d="M45.325,64.618l0,2.742l1.606,0c1.078,0 2.212,-0.076 2.212,-1.438c0,-1.229 -0.945,-1.305 -1.966,-1.305l-1.852,0l0,0.001Z" style="fill:#a6b9d5;fill-rule:nonzero;"/><path d="M78.918,53.636l-1.477,0l0,-26.485l-23.706,-26.497l-40.444,0c-6.943,0 -12.592,5.648 -12.592,12.592l0,70.744c0,6.943 5.648,12.592 12.592,12.592l51.559,0c6.943,0 12.592,-5.648 12.592,-12.592l0,-3.045l1.476,0c3.48,0 6.301,-2.822 6.301,-6.302l0,-14.706c0,-3.48 -2.82,-6.301 -6.301,-6.301ZM55.393,11.507l12.339,13.79l-12.339,0l0,-13.79ZM71.442,83.99c0,3.635 -2.957,6.592 -6.592,6.592l-51.559,0c-3.635,0 -6.592,-2.957 -6.592,-6.592l0,-70.744c0,-3.635 2.957,-6.592 6.592,-6.592l36.102,0l0,24.643l22.049,0l0,22.339l-31.388,0c-3.48,0 -6.302,2.821 -6.302,6.302l0,14.706c0,3.479 2.821,6.302 6.302,6.302l31.388,0l0,3.044ZM67.388,67.889c0,4.141 -2.193,6.768 -6.9,6.768l-6.013,0l0,-13.498l6.825,0c4.5,0 6.088,3.328 6.088,6.73ZM53.076,65.772c0,3.27 -2.193,4.801 -5.294,4.801l-2.457,0l0,4.084l-4.16,0l0,-13.498l6.958,0c3.667,0 4.953,2.684 4.953,4.613ZM79.621,64.618l-6.276,0l0,1.684l5.388,0l0,3.213l-5.388,0l0,5.143l-4.16,0l0,-13.499l10.437,0l0,3.459l-0.001,0Z" style="fill:#a6b9d5;fill-rule:nonzero;"/></g></svg>