<?xml version="1.0" standalone="no"?>
<!DOCTYPE svg PUBLIC "-//W3C//DTD SVG 1.1//EN" "http://www.w3.org/Graphics/SVG/1.1/DTD/svg11.dtd">
<?xml-stylesheet type="text/css" href="/lucawater3/content/themes/elements/css/app.css"?>
<svg width="100%" height="100%" viewBox="0 0 992 353" version="1.1" xmlns="http://www.w3.org/2000/svg" xmlns:xlink="http://www.w3.org/1999/xlink" xml:space="preserve" style="fill-rule:evenodd;clip-rule:evenodd;stroke-linejoin:round;stroke-miterlimit:1.41421;">
  <g>
    <path d="M103.46,115.123c0.241,0.112 0.312,0.126 0.518,0.299c0.309,0.26 0.52,0.625 0.59,1.022c0.018,0.099 0.018,0.2 0.027,0.3l0,28.151c-0.024,0.265 -0.012,0.338 -0.104,0.59c-0.173,0.476 -0.556,0.858 -1.031,1.032c-0.253,0.092 -0.326,0.08 -0.59,0.104l-101.145,0c-0.265,-0.024 -0.337,-0.012 -0.59,-0.104c-0.475,-0.174 -0.858,-0.556 -1.031,-1.032c-0.092,-0.252 -0.081,-0.325 -0.104,-0.59l0,-140.757c0.023,-0.265 0.012,-0.337 0.104,-0.59c0.173,-0.476 0.556,-0.858 1.031,-1.031c0.253,-0.092 0.325,-0.081 0.59,-0.104l30.967,0c0.265,0.023 0.337,0.012 0.59,0.104c0.475,0.173 0.858,0.555 1.031,1.031c0.092,0.253 0.081,0.325 0.104,0.59l0,110.881l68.453,0l0.299,0.026c0.097,0.026 0.194,0.052 0.291,0.078ZM3.45,5.863l0,137.307l97.694,0l0,-24.701l-68.452,0c-0.265,-0.023 -0.337,-0.012 -0.59,-0.104c-0.476,-0.173 -0.858,-0.556 -1.031,-1.031c-0.092,-0.253 -0.081,-0.325 -0.104,-0.59l0,-110.881c-9.172,0 -18.345,0 -27.517,0Z" style="fill:#000;fill-rule:nonzero;"/>
    <path d="M257.287,2.517c0.091,0.042 0.186,0.077 0.273,0.127c0.349,0.201 0.621,0.525 0.759,0.904c0.092,0.253 0.08,0.325 0.104,0.59c0,26.644 0.085,53.289 -0.002,79.933c-0.009,1.653 -0.05,3.305 -0.132,4.955c-0.068,1.355 -0.162,2.709 -0.286,4.06c-0.098,1.081 -0.215,2.161 -0.352,3.238c-0.898,7.063 -2.65,14.056 -5.604,20.55c-0.457,1.004 -0.942,1.995 -1.456,2.971c-0.798,1.515 -1.666,2.993 -2.605,4.426c-1.187,1.812 -2.488,3.551 -3.897,5.198c-1.9,2.222 -3.997,4.276 -6.259,6.128c-1.651,1.353 -3.389,2.598 -5.197,3.733c-1.306,0.819 -2.649,1.581 -4.021,2.284c-1.001,0.514 -2.018,0.996 -3.048,1.449c-7.165,3.148 -14.913,4.813 -22.692,5.453c-1.299,0.107 -2.601,0.186 -3.903,0.238c-1.782,0.071 -3.566,0.093 -5.35,0.07c-1.467,-0.02 -2.935,-0.071 -4.4,-0.158c-1.001,-0.059 -2.002,-0.134 -3.001,-0.227c-6.944,-0.645 -13.846,-2.132 -20.306,-4.799c-0.978,-0.404 -1.946,-0.835 -2.901,-1.293c-1.327,-0.637 -2.63,-1.328 -3.901,-2.072c-1.618,-0.947 -3.184,-1.981 -4.688,-3.101c-2.07,-1.541 -4.019,-3.243 -5.821,-5.091c-1.689,-1.731 -3.249,-3.589 -4.667,-5.549c-1.086,-1.5 -2.088,-3.06 -3.008,-4.668c-0.658,-1.151 -1.273,-2.326 -1.847,-3.522c-3.249,-6.771 -5.128,-14.135 -6.047,-21.57c-0.13,-1.053 -0.241,-2.108 -0.335,-3.165c-0.116,-1.318 -0.204,-2.64 -0.267,-3.962c-0.08,-1.691 -0.116,-3.383 -0.118,-5.075l0,-80.434c0.023,-0.265 0.012,-0.337 0.104,-0.59c0.173,-0.476 0.556,-0.858 1.031,-1.031c0.253,-0.092 0.325,-0.081 0.59,-0.104l30.967,0c0.265,0.023 0.337,0.012 0.59,0.104c0.475,0.173 0.858,0.555 1.031,1.031c0.092,0.253 0.081,0.325 0.104,0.59c0,26.63 -0.052,53.26 0.001,79.89c0.007,1.183 0.04,2.367 0.113,3.548c0.064,1.039 0.156,2.076 0.28,3.109c0.091,0.758 0.199,1.515 0.326,2.269c0.099,0.581 0.208,1.161 0.33,1.738c0.77,3.651 2.032,7.229 3.997,10.414c0.311,0.504 0.638,0.996 0.983,1.476c0.471,0.656 0.974,1.29 1.509,1.895c0.971,1.099 2.047,2.106 3.21,2.999c0.805,0.618 1.651,1.182 2.531,1.689c0.645,0.371 1.308,0.713 1.985,1.023c0.477,0.22 0.962,0.424 1.452,0.613c3.524,1.361 7.31,1.944 11.075,2.019c0.635,0.013 1.269,0.011 1.904,-0.004c3.928,-0.095 7.88,-0.728 11.535,-2.206c0.482,-0.195 0.957,-0.404 1.425,-0.628c0.614,-0.293 1.215,-0.611 1.801,-0.955c0.817,-0.479 1.605,-1.008 2.357,-1.585c1.058,-0.812 2.043,-1.718 2.941,-2.704c0.61,-0.67 1.18,-1.376 1.709,-2.112c0.338,-0.471 0.66,-0.955 0.964,-1.449c2.228,-3.616 3.521,-7.74 4.202,-11.913c0.121,-0.738 0.223,-1.48 0.307,-2.223c0.106,-0.933 0.185,-1.869 0.24,-2.806c0.068,-1.154 0.097,-2.309 0.1,-3.465l0,-80.632c0.023,-0.265 0.012,-0.337 0.104,-0.59c0.173,-0.476 0.555,-0.858 1.031,-1.031c0.253,-0.092 0.325,-0.081 0.59,-0.104l30.966,0l0.3,0.026c0.097,0.026 0.194,0.052 0.29,0.078ZM135.762,5.863c0,26.395 -0.085,52.79 0.001,79.185c0.003,0.394 0.007,0.789 0.012,1.184c0.026,1.54 0.081,3.079 0.176,4.617c0.082,1.332 0.192,2.663 0.332,3.991c0.106,1.002 0.229,2.001 0.371,2.998c0.964,6.79 2.793,13.501 5.851,19.658c0.472,0.952 0.973,1.889 1.504,2.809c0.806,1.398 1.679,2.757 2.621,4.068c1.248,1.738 2.615,3.391 4.092,4.939c1.656,1.736 3.45,3.339 5.358,4.792c1.388,1.057 2.837,2.036 4.333,2.933c1.08,0.648 2.186,1.253 3.312,1.817c0.832,0.417 1.676,0.811 2.529,1.183c6.291,2.742 13.063,4.261 19.877,4.928c1.234,0.12 2.471,0.213 3.709,0.281c1.707,0.092 3.416,0.136 5.125,0.136c1.711,0 3.422,-0.043 5.131,-0.135c1.242,-0.067 2.483,-0.159 3.72,-0.279c6.924,-0.671 13.806,-2.21 20.198,-4.993c0.862,-0.375 1.714,-0.773 2.556,-1.194c1.139,-0.569 2.257,-1.181 3.349,-1.835c1.517,-0.907 2.984,-1.896 4.391,-2.966c1.938,-1.472 3.759,-3.096 5.441,-4.855c1.503,-1.572 2.893,-3.251 4.163,-5.017c0.994,-1.382 1.913,-2.818 2.759,-4.295c0.538,-0.941 1.047,-1.9 1.525,-2.872c3.178,-6.456 5.032,-13.5 5.973,-20.615c0.147,-1.106 0.271,-2.216 0.375,-3.328c0.137,-1.457 0.239,-2.917 0.308,-4.379c0.08,-1.684 0.116,-3.369 0.118,-5.055l0,-77.701l-27.516,0c0,26.392 0.053,52.785 -0.001,79.177c-0.006,1.133 -0.038,2.266 -0.104,3.397c-0.049,0.836 -0.116,1.671 -0.203,2.504c-0.076,0.726 -0.167,1.451 -0.273,2.172c-0.681,4.6 -2.03,9.146 -4.369,13.185c-0.433,0.747 -0.898,1.475 -1.396,2.18c-0.676,0.955 -1.412,1.867 -2.206,2.726c-1.044,1.129 -2.187,2.165 -3.413,3.092c-1.491,1.126 -3.103,2.089 -4.795,2.883c-1.627,0.764 -3.325,1.371 -5.061,1.836c-2.975,0.797 -6.052,1.176 -9.127,1.25c-4.714,0.114 -9.492,-0.458 -13.93,-2.104c-0.623,-0.231 -1.238,-0.482 -1.844,-0.755c-0.836,-0.377 -1.653,-0.794 -2.448,-1.252c-1.011,-0.582 -1.984,-1.231 -2.909,-1.941c-1.287,-0.988 -2.481,-2.097 -3.564,-3.305c-0.749,-0.836 -1.446,-1.719 -2.088,-2.64c-0.424,-0.609 -0.824,-1.234 -1.2,-1.873c-2.488,-4.224 -3.912,-9 -4.63,-13.828c-0.11,-0.738 -0.204,-1.478 -0.282,-2.22c-0.109,-1.025 -0.189,-2.053 -0.244,-3.083c-0.061,-1.164 -0.088,-2.33 -0.09,-3.496l0,-77.905c-9.172,0 -18.344,0 -27.517,0Z" style="fill:#000;fill-rule:nonzero;"/>
    <path d="M365.798,0c1.033,0.004 2.066,0.019 3.099,0.049c2.168,0.064 4.334,0.19 6.494,0.389c5.376,0.494 10.717,1.441 15.897,2.972c3.717,1.099 7.345,2.5 10.825,4.207c3.346,1.641 6.551,3.563 9.589,5.719c3.147,2.234 6.112,4.715 8.918,7.361c0.318,0.3 0.633,0.601 0.947,0.905c0.105,0.101 0.209,0.203 0.313,0.305c0.144,0.14 0.371,0.347 0.498,0.522c0.114,0.156 0.2,0.331 0.256,0.516c0.111,0.371 0.094,0.775 -0.05,1.135c-0.095,0.24 -0.148,0.286 -0.299,0.492l-19.706,22.722c-0.194,0.188 -0.233,0.25 -0.472,0.382c-0.45,0.247 -0.998,0.28 -1.474,0.089c-0.253,-0.101 -0.3,-0.159 -0.515,-0.322c-0.25,-0.226 -0.501,-0.452 -0.753,-0.677c-0.906,-0.803 -1.823,-1.593 -2.759,-2.362c-2.34,-1.925 -4.786,-3.727 -7.36,-5.328c-2.101,-1.307 -4.288,-2.479 -6.557,-3.467c-1.426,-0.621 -2.884,-1.167 -4.366,-1.637c-3.509,-1.112 -7.165,-1.742 -10.84,-1.916c-1.958,-0.093 -3.923,-0.065 -5.875,0.115c-2.185,0.2 -4.354,0.585 -6.472,1.158c-2.283,0.617 -4.506,1.452 -6.629,2.494c-2.734,1.341 -5.297,3.022 -7.623,4.986c-1.656,1.397 -3.192,2.936 -4.591,4.59c-2.594,3.065 -4.716,6.52 -6.323,10.197c-1.26,2.884 -2.204,5.904 -2.832,8.988c-0.44,2.16 -0.726,4.351 -0.86,6.551c-0.044,0.72 -0.072,1.441 -0.084,2.162c-0.007,0.406 -0.007,0.811 -0.007,1.217c0.002,1.444 0.062,2.888 0.187,4.326c0.236,2.707 0.696,5.394 1.387,8.022c0.753,2.864 1.781,5.657 3.084,8.317c1.62,3.309 3.665,6.412 6.104,9.175c1.277,1.447 2.662,2.8 4.142,4.04c2.595,2.172 5.483,3.989 8.571,5.373c1.881,0.843 3.833,1.525 5.828,2.041c2.072,0.536 4.19,0.892 6.322,1.074c2.045,0.176 4.102,0.183 6.151,0.084c2.1,-0.102 4.195,-0.33 6.262,-0.71c1.958,-0.361 3.891,-0.858 5.776,-1.497c1.771,-0.601 3.498,-1.325 5.171,-2.158c1.684,-0.838 3.312,-1.784 4.888,-2.81c3.956,-2.576 7.571,-5.636 11.062,-8.803l0.232,-0.177c0.229,-0.12 0.283,-0.167 0.538,-0.226c0.381,-0.088 0.788,-0.042 1.141,0.128c0.235,0.114 0.277,0.172 0.474,0.339l19.706,19.908c0.166,0.199 0.224,0.242 0.335,0.479c0.21,0.447 0.217,0.974 0.019,1.426c-0.105,0.241 -0.161,0.285 -0.322,0.489c-0.229,0.243 -0.457,0.486 -0.687,0.729c-0.574,0.602 -1.151,1.2 -1.736,1.791c-1.212,1.225 -2.452,2.422 -3.723,3.585c-2.968,2.717 -6.11,5.248 -9.447,7.499c-2.876,1.94 -5.895,3.67 -9.034,5.15c-3.112,1.466 -6.338,2.686 -9.638,3.661c-3.098,0.915 -6.259,1.614 -9.449,2.124c-3.381,0.54 -6.793,0.869 -10.212,1.027c-1.252,0.057 -2.505,0.092 -3.759,0.106c-1.414,0.016 -2.828,0.005 -4.241,-0.046c-2.417,-0.088 -4.831,-0.284 -7.23,-0.593c-4.563,-0.587 -9.075,-1.581 -13.455,-2.988c-4.878,-1.566 -9.591,-3.643 -14.03,-6.2c-3.33,-1.918 -6.505,-4.104 -9.483,-6.532c-3.129,-2.551 -6.04,-5.369 -8.693,-8.412c-3.096,-3.551 -5.839,-7.409 -8.183,-11.496c-2.303,-4.017 -4.22,-8.253 -5.727,-12.631c-1.649,-4.789 -2.806,-9.744 -3.471,-14.765c-0.459,-3.461 -0.682,-6.952 -0.684,-10.443c0,-0.533 0.001,-1.066 0.009,-1.599c0.012,-0.872 0.039,-1.744 0.081,-2.615c0.121,-2.579 0.368,-5.152 0.742,-7.707c0.554,-3.788 1.388,-7.536 2.502,-11.2c1.201,-3.95 2.728,-7.802 4.568,-11.499c1.554,-3.122 3.331,-6.133 5.316,-9.001c2.188,-3.16 4.63,-6.145 7.297,-8.915c3.041,-3.158 6.373,-6.034 9.941,-8.582c3.382,-2.413 6.974,-4.531 10.721,-6.326c3.213,-1.541 6.539,-2.844 9.94,-3.906c3.203,-1 6.472,-1.786 9.778,-2.361c3.015,-0.525 6.061,-0.875 9.117,-1.058c1.529,-0.091 3.06,-0.138 4.592,-0.15c0.277,-0.001 0.554,-0.001 0.831,-0.001ZM365.235,3.45c-1.553,0.007 -3.105,0.053 -4.655,0.145c-2.926,0.175 -5.843,0.51 -8.731,1.013c-3.231,0.562 -6.427,1.335 -9.555,2.323c-3.238,1.022 -6.403,2.274 -9.46,3.751c-3.496,1.689 -6.85,3.673 -10.01,5.929c-3.453,2.465 -6.674,5.253 -9.607,8.319c-2.481,2.593 -4.756,5.383 -6.799,8.333c-2.053,2.965 -3.872,6.092 -5.44,9.34c-1.619,3.355 -2.97,6.84 -4.043,10.408c-1.053,3.503 -1.839,7.086 -2.358,10.708c-0.35,2.445 -0.579,4.908 -0.688,7.376c-0.034,0.759 -0.056,1.518 -0.067,2.277c-0.008,0.515 -0.009,1.03 -0.009,1.546c0.002,3.34 0.215,6.68 0.654,9.992c0.616,4.65 1.674,9.241 3.173,13.686c1.412,4.184 3.216,8.235 5.389,12.079c2.139,3.784 4.637,7.366 7.453,10.678c2.488,2.926 5.225,5.641 8.172,8.105c2.803,2.344 5.795,4.46 8.939,6.323c4.253,2.521 8.779,4.574 13.472,6.13c4.087,1.354 8.297,2.33 12.561,2.932c2.514,0.355 5.047,0.58 7.584,0.68c1.437,0.057 2.874,0.069 4.312,0.053c1.113,-0.012 2.227,-0.042 3.34,-0.09c6.22,-0.268 12.431,-1.121 18.428,-2.82c3.154,-0.894 6.242,-2.02 9.223,-3.385c2.999,-1.373 5.886,-2.986 8.639,-4.803c3.278,-2.163 6.361,-4.611 9.27,-7.247c1.173,-1.062 2.318,-2.156 3.439,-3.273c0.512,-0.511 1.019,-1.029 1.522,-1.549l0.202,-0.21l-17.373,-17.55c-0.284,0.253 -0.569,0.505 -0.855,0.756c-1.023,0.895 -2.057,1.777 -3.11,2.635c-2.436,1.985 -4.972,3.854 -7.654,5.495c-1.805,1.104 -3.674,2.104 -5.606,2.969c-1.963,0.878 -3.989,1.615 -6.058,2.199c-1.787,0.503 -3.605,0.893 -5.439,1.176c-1.96,0.302 -3.938,0.481 -5.92,0.558c-1.346,0.051 -2.694,0.061 -4.04,0.009c-1.428,-0.056 -2.854,-0.182 -4.27,-0.38c-2.191,-0.306 -4.359,-0.785 -6.473,-1.44c-2.139,-0.662 -4.222,-1.503 -6.22,-2.513c-3.295,-1.666 -6.352,-3.792 -9.074,-6.285c-3.319,-3.04 -6.133,-6.616 -8.364,-10.521c-1.797,-3.144 -3.218,-6.5 -4.256,-9.969c-0.966,-3.23 -1.6,-6.557 -1.911,-9.913c-0.15,-1.631 -0.223,-3.268 -0.225,-4.906c0,-0.427 0,-0.853 0.007,-1.28c0.013,-0.772 0.043,-1.544 0.09,-2.315c0.139,-2.267 0.427,-4.526 0.868,-6.754c0.64,-3.24 1.605,-6.416 2.893,-9.458c1.559,-3.685 3.593,-7.171 6.066,-10.318c1.567,-1.995 3.309,-3.852 5.206,-5.537c2.55,-2.264 5.38,-4.213 8.412,-5.776c2.292,-1.181 4.698,-2.14 7.174,-2.863c2.288,-0.668 4.633,-1.133 7.001,-1.398c2.22,-0.248 4.458,-0.315 6.69,-0.232c1.917,0.071 3.829,0.255 5.723,0.559c1.939,0.31 3.858,0.747 5.741,1.304c2.261,0.67 4.468,1.516 6.606,2.512c2.112,0.984 4.155,2.113 6.127,3.354c2.317,1.458 4.536,3.07 6.671,4.783c0.973,0.781 1.927,1.585 2.869,2.404l0.238,0.208l17.49,-20.167c-0.22,-0.21 -0.441,-0.418 -0.663,-0.626c-0.768,-0.714 -1.544,-1.419 -2.336,-2.108c-1.629,-1.418 -3.313,-2.773 -5.056,-4.049c-3.314,-2.426 -6.841,-4.56 -10.547,-6.332c-2.634,-1.258 -5.354,-2.334 -8.132,-3.228c-2.924,-0.941 -5.912,-1.682 -8.932,-2.246c-3.711,-0.692 -7.469,-1.118 -11.237,-1.333c-1.768,-0.101 -3.537,-0.153 -5.308,-0.169c-0.388,-0.003 -0.775,-0.004 -1.163,-0.004Z" style="fill:#000;fill-rule:nonzero;"/>
  </g>
  <g>
    <path d="M151.483,206.976c0.245,0.118 0.319,0.133 0.526,0.314c0.39,0.341 0.609,0.851 0.586,1.368c-0.012,0.275 -0.052,0.339 -0.135,0.598l-60.03,141.07c-0.044,0.084 -0.082,0.172 -0.134,0.253c-0.206,0.323 -0.521,0.571 -0.883,0.696c-0.242,0.084 -0.31,0.074 -0.563,0.095l-28.414,0c-0.095,-0.008 -0.191,-0.008 -0.285,-0.024c-0.378,-0.064 -0.729,-0.256 -0.987,-0.54c-0.172,-0.19 -0.189,-0.256 -0.307,-0.48l-60.03,-141.07c-0.083,-0.259 -0.123,-0.323 -0.135,-0.598c-0.009,-0.205 0.019,-0.411 0.083,-0.606c0.16,-0.493 0.544,-0.894 1.029,-1.076c0.258,-0.096 0.332,-0.085 0.603,-0.109l32.216,0c0.096,0.008 0.193,0.008 0.289,0.024c0.383,0.066 0.738,0.263 0.995,0.554c0.172,0.194 0.189,0.262 0.305,0.491l12.371,30.347l56.921,0l12.371,-30.347c0.116,-0.229 0.133,-0.297 0.305,-0.491c0.258,-0.291 0.613,-0.488 0.996,-0.554c0.095,-0.016 0.192,-0.016 0.289,-0.024l31.415,0l0.306,0.028c0.099,0.027 0.198,0.054 0.297,0.081ZM5.003,210.3l58.569,137.637l26.143,0l58.569,-137.637l-27.665,0l-12.371,30.347l-0.132,0.259c-0.153,0.205 -0.181,0.27 -0.383,0.432c-0.227,0.182 -0.499,0.304 -0.786,0.353c-0.095,0.017 -0.192,0.017 -0.289,0.025l-59.229,0c-0.256,-0.022 -0.325,-0.011 -0.57,-0.097c-0.366,-0.129 -0.683,-0.383 -0.888,-0.713c-0.051,-0.083 -0.088,-0.173 -0.132,-0.259l-12.37,-30.347c-9.489,0 -18.977,0 -28.466,0ZM95.957,265.523c0.261,0.071 0.335,0.073 0.57,0.212c0.353,0.209 0.623,0.543 0.753,0.932c0.065,0.193 0.095,0.397 0.089,0.601c-0.009,0.274 -0.048,0.337 -0.128,0.595l-18.609,45.423c-0.048,0.092 -0.088,0.189 -0.144,0.276c-0.112,0.176 -0.256,0.33 -0.424,0.454c-0.168,0.124 -0.357,0.216 -0.558,0.272c-0.506,0.142 -1.06,0.04 -1.483,-0.272c-0.167,-0.124 -0.311,-0.278 -0.424,-0.454c-0.056,-0.087 -0.096,-0.184 -0.144,-0.276l-18.609,-45.423c-0.08,-0.258 -0.118,-0.321 -0.127,-0.595c-0.007,-0.204 0.023,-0.408 0.088,-0.601c0.164,-0.488 0.547,-0.884 1.029,-1.063c0.256,-0.096 0.329,-0.084 0.598,-0.108l37.219,0c0.101,0.009 0.203,0.018 0.304,0.027ZM60.993,268.929l16.051,39.178l16.05,-39.178c-10.7,0 -21.401,0 -32.101,0Z" style="fill:#fff;fill-rule:nonzero;"/>
    <path d="M205.996,208.45l0.352,0.632l27.435,89.682l29.723,-90.118l0.358,-0.614l0.577,-0.417l0.696,-0.148l26.413,0l0.696,0.148l0.576,0.417l0.358,0.614l29.724,90.118l27.434,-89.682l0.353,-0.632l0.581,-0.43l0.707,-0.153l32.216,0c0.212,0.041 0.436,0.043 0.636,0.123c0.409,0.163 0.739,0.476 0.923,0.875c0.091,0.196 0.144,0.413 0.156,0.629c0.011,0.215 -0.059,0.428 -0.089,0.641l-47.823,141.07l-0.36,0.608l-0.575,0.412l-0.691,0.146l-26.813,0l-0.689,-0.145l-0.573,-0.408l-0.361,-0.604l-29.993,-86.941l-29.993,86.941l-0.361,0.604l-0.573,0.408l-0.689,0.145l-26.813,0l-0.692,-0.146l-0.574,-0.412l-0.36,-0.608l-47.823,-141.07l-0.089,-0.641c0.052,-0.21 0.065,-0.433 0.156,-0.629c0.184,-0.399 0.514,-0.712 0.922,-0.875c0.201,-0.08 0.424,-0.082 0.636,-0.123l33.017,0l0.707,0.153c0.194,0.143 0.388,0.287 0.582,0.43ZM279.205,257.845l0.361,0.604l31.216,90.488l24.359,0l46.66,-137.636l-28.551,0l-28.643,93.632l-0.349,0.627l-0.574,0.43l-0.7,0.158l-0.703,-0.143l-0.584,-0.417l-0.362,-0.619l-31.027,-94.068l-23.93,0l-31.027,94.068l-0.362,0.619l-0.583,0.417l-0.704,0.143l-0.7,-0.158l-0.574,-0.43l-0.349,-0.627l-28.642,-93.632l-29.352,0l46.66,137.636l24.359,0l31.216,-90.488l0.361,-0.604l0.573,-0.409l0.689,-0.144l0.689,0.144c0.191,0.136 0.382,0.272 0.573,0.409Z" style="fill:#fff;fill-rule:nonzero;"/>
    <path d="M493.735,206.891c0.092,0.023 0.187,0.039 0.277,0.071c0.271,0.094 0.517,0.256 0.71,0.469c0.171,0.19 0.189,0.257 0.307,0.48l60.03,141.07c0.083,0.259 0.123,0.323 0.135,0.598c0.023,0.517 -0.196,1.027 -0.586,1.368c-0.155,0.135 -0.333,0.242 -0.526,0.314c-0.258,0.096 -0.332,0.085 -0.603,0.109l-32.216,0c-0.255,-0.022 -0.325,-0.011 -0.569,-0.097c-0.367,-0.129 -0.684,-0.383 -0.889,-0.713c-0.051,-0.082 -0.088,-0.172 -0.132,-0.259l-12.37,-30.346l-56.921,0l-12.371,30.346c-0.117,0.229 -0.133,0.297 -0.305,0.491c-0.258,0.291 -0.613,0.488 -0.996,0.554c-0.095,0.016 -0.192,0.016 -0.289,0.024l-31.415,0c-0.271,-0.024 -0.345,-0.013 -0.603,-0.109c-0.193,-0.072 -0.371,-0.179 -0.526,-0.314c-0.39,-0.341 -0.609,-0.851 -0.586,-1.368c0.012,-0.275 0.051,-0.339 0.135,-0.598l60.03,-141.07c0.044,-0.084 0.082,-0.172 0.133,-0.253c0.207,-0.323 0.521,-0.571 0.884,-0.696c0.242,-0.084 0.31,-0.074 0.562,-0.095l28.414,0c0.095,0.008 0.191,0.016 0.286,0.024ZM466.171,210.3l-58.569,137.637l27.665,0l12.371,-30.347l0.132,-0.258c0.153,-0.206 0.181,-0.271 0.383,-0.433c0.227,-0.182 0.499,-0.304 0.786,-0.353c0.095,-0.017 0.192,-0.017 0.289,-0.025l59.229,0c0.096,0.008 0.193,0.008 0.289,0.025c0.383,0.065 0.738,0.262 0.995,0.553c0.172,0.194 0.189,0.262 0.306,0.491l12.37,30.347l28.466,0l-58.569,-137.637c-8.714,0 -17.429,0 -26.143,0ZM478.998,243.892c0.102,0.019 0.207,0.029 0.307,0.057c0.402,0.112 0.756,0.374 0.982,0.726c0.056,0.087 0.096,0.184 0.144,0.276l18.609,45.423c0.08,0.258 0.118,0.321 0.127,0.595c0.007,0.204 -0.023,0.408 -0.088,0.602c-0.164,0.487 -0.547,0.883 -1.029,1.062c-0.256,0.096 -0.33,0.084 -0.599,0.108l-37.218,0c-0.269,-0.024 -0.343,-0.012 -0.599,-0.108c-0.482,-0.179 -0.865,-0.575 -1.029,-1.062c-0.065,-0.194 -0.094,-0.398 -0.088,-0.602c0.009,-0.274 0.048,-0.337 0.127,-0.595l18.61,-45.423c0.048,-0.092 0.087,-0.189 0.144,-0.276c0.225,-0.352 0.579,-0.614 0.982,-0.726c0.1,-0.028 0.204,-0.038 0.306,-0.057c0.104,0 0.208,0 0.312,0ZM462.791,289.308l32.102,0l-16.051,-39.178c-5.35,13.059 -10.7,26.119 -16.051,39.178Z" style="fill:#fff;fill-rule:nonzero;"/>
    <path d="M691.445,207.894c0.256,0.068 0.329,0.07 0.56,0.203c0.348,0.201 0.618,0.523 0.755,0.9c0.092,0.252 0.081,0.324 0.104,0.587l0,28.414c-0.023,0.264 -0.012,0.336 -0.104,0.587c-0.172,0.474 -0.553,0.854 -1.026,1.026c-0.251,0.092 -0.323,0.081 -0.587,0.104l-40.904,0l0,109.938l-0.026,0.298c-0.069,0.256 -0.07,0.329 -0.204,0.561c-0.201,0.347 -0.523,0.617 -0.9,0.755c-0.251,0.091 -0.323,0.08 -0.587,0.103l-30.815,0c-0.264,-0.023 -0.336,-0.012 -0.587,-0.103c-0.474,-0.173 -0.854,-0.553 -1.026,-1.026c-0.092,-0.252 -0.081,-0.324 -0.104,-0.588l0,-109.938l-40.904,0l-0.298,-0.026c-0.256,-0.069 -0.329,-0.07 -0.561,-0.204c-0.347,-0.201 -0.617,-0.523 -0.754,-0.9c-0.092,-0.251 -0.081,-0.323 -0.104,-0.587l0,-28.414c0.023,-0.263 0.012,-0.335 0.104,-0.587c0.172,-0.473 0.552,-0.854 1.026,-1.026c0.251,-0.092 0.323,-0.08 0.587,-0.104l116.057,0c0.099,0.009 0.199,0.018 0.298,0.027ZM576.806,211.301l0,24.981l40.905,0c0.263,0.023 0.335,0.012 0.587,0.103c0.473,0.172 0.854,0.553 1.026,1.026c0.092,0.252 0.08,0.324 0.103,0.587l0,109.939l27.382,0l0,-109.939c0.023,-0.263 0.012,-0.335 0.104,-0.587c0.172,-0.473 0.553,-0.854 1.026,-1.026c0.251,-0.091 0.323,-0.08 0.587,-0.103l40.904,0l0,-24.981c-37.541,0 -75.082,0 -112.624,0Z" style="fill:#fff;fill-rule:nonzero;"/>
    <path d="M830.714,207.894c0.256,0.068 0.328,0.07 0.56,0.203c0.348,0.201 0.618,0.523 0.755,0.9c0.092,0.252 0.081,0.324 0.104,0.587l0,27.414c-0.023,0.263 -0.012,0.335 -0.104,0.587c-0.172,0.473 -0.553,0.854 -1.026,1.026c-0.252,0.091 -0.323,0.08 -0.587,0.103l-73.32,0l0,24.981l64.315,0c0.264,0.023 0.336,0.012 0.588,0.104c0.473,0.172 0.853,0.552 1.026,1.026c0.091,0.251 0.08,0.323 0.103,0.587l0,27.413c-0.023,0.264 -0.012,0.336 -0.103,0.587c-0.173,0.474 -0.553,0.854 -1.026,1.026c-0.252,0.092 -0.324,0.081 -0.588,0.104l-64.315,0l0,25.981l74.32,0c0.264,0.023 0.336,0.012 0.588,0.104c0.473,0.172 0.853,0.553 1.026,1.026c0.091,0.251 0.08,0.323 0.103,0.587l0,27.413c-0.023,0.264 -0.012,0.336 -0.103,0.588c-0.173,0.473 -0.553,0.853 -1.026,1.026c-0.252,0.091 -0.324,0.08 -0.588,0.103l-106.652,0c-0.264,-0.023 -0.336,-0.012 -0.587,-0.103c-0.474,-0.173 -0.854,-0.553 -1.026,-1.026c-0.092,-0.252 -0.081,-0.324 -0.104,-0.588l0,-140.069c0.023,-0.263 0.012,-0.335 0.104,-0.587c0.172,-0.473 0.552,-0.854 1.026,-1.026c0.251,-0.092 0.323,-0.08 0.587,-0.104l105.652,0c0.099,0.009 0.199,0.018 0.298,0.027ZM726.48,211.301l0,136.636l103.22,0l0,-23.98l-74.321,0c-0.264,-0.024 -0.336,-0.012 -0.587,-0.104c-0.473,-0.172 -0.854,-0.553 -1.026,-1.026c-0.092,-0.252 -0.081,-0.324 -0.104,-0.587l0,-29.415c0.023,-0.263 0.012,-0.335 0.104,-0.587c0.172,-0.473 0.553,-0.854 1.026,-1.026c0.251,-0.091 0.323,-0.08 0.587,-0.103l64.316,0l0,-23.981l-64.316,0c-0.264,-0.023 -0.336,-0.011 -0.587,-0.103c-0.473,-0.172 -0.854,-0.553 -1.026,-1.026c-0.092,-0.252 -0.081,-0.324 -0.104,-0.587l0,-28.414c0.023,-0.264 0.012,-0.336 0.104,-0.587c0.172,-0.474 0.553,-0.854 1.026,-1.026c0.251,-0.092 0.323,-0.081 0.587,-0.104l73.32,0l0,-23.98c-34.073,0 -68.146,0 -102.219,0Z" style="fill:#fff;fill-rule:nonzero;"/>
    <path d="M933.26,207.868c1.544,0.01 3.087,0.051 4.628,0.136c1.244,0.069 2.486,0.165 3.725,0.289c1.085,0.11 2.168,0.241 3.247,0.396c6.774,0.974 13.462,2.893 19.516,6.125c1.345,0.718 2.656,1.5 3.925,2.347c1.487,0.993 2.915,2.075 4.268,3.244c1.701,1.47 3.284,3.076 4.722,4.803c2.259,2.713 4.155,5.72 5.649,8.917c1.469,3.146 2.55,6.467 3.275,9.861c0.566,2.656 0.917,5.356 1.082,8.066c0.055,0.906 0.089,1.812 0.104,2.719c0.008,0.479 0.009,0.959 0.008,1.438c-0.001,1.508 -0.053,3.015 -0.164,4.519c-0.209,2.826 -0.626,5.639 -1.284,8.397c-0.578,2.428 -1.345,4.812 -2.309,7.115c-1.063,2.539 -2.367,4.976 -3.899,7.263c-1.574,2.348 -3.387,4.533 -5.397,6.521c-1.853,1.834 -3.871,3.499 -6.011,4.987c-2.116,1.473 -4.351,2.774 -6.665,3.91c-1.078,0.53 -2.174,1.022 -3.284,1.485l-0.083,0.034l32.999,48.244l0.141,0.249c0.087,0.238 0.125,0.296 0.15,0.551c0.019,0.19 0.006,0.383 -0.039,0.569c-0.112,0.468 -0.423,0.875 -0.845,1.106c-0.168,0.092 -0.35,0.155 -0.539,0.187c-0.094,0.016 -0.19,0.016 -0.285,0.024l-36.018,0c-0.093,-0.008 -0.187,-0.008 -0.279,-0.023c-0.278,-0.046 -0.542,-0.16 -0.765,-0.331c-0.199,-0.152 -0.228,-0.213 -0.382,-0.407l-29.505,-44.061l-21.579,0l0,43.105c-0.023,0.264 -0.012,0.336 -0.104,0.588c-0.172,0.473 -0.553,0.853 -1.026,1.026c-0.251,0.091 -0.323,0.08 -0.587,0.103l-30.815,0c-0.264,-0.023 -0.336,-0.012 -0.587,-0.103c-0.473,-0.173 -0.854,-0.553 -1.026,-1.026c-0.092,-0.252 -0.081,-0.324 -0.104,-0.588l0,-140.069c0.023,-0.263 0.012,-0.335 0.104,-0.587c0.172,-0.473 0.553,-0.854 1.026,-1.026c0.251,-0.092 0.323,-0.08 0.587,-0.104c21.475,0 42.95,-0.043 64.425,0.001ZM870.552,211.301l0,136.636l27.381,0l0,-43.106l0.026,-0.298c0.069,-0.255 0.071,-0.328 0.204,-0.56c0.201,-0.348 0.523,-0.618 0.9,-0.755c0.252,-0.091 0.323,-0.08 0.587,-0.103l24.212,0c0.247,0.02 0.314,0.01 0.551,0.09c0.266,0.091 0.509,0.247 0.701,0.452c0.064,0.068 0.116,0.146 0.174,0.219l29.505,44.061l31.848,0l-32.38,-47.339c-0.124,-0.218 -0.17,-0.268 -0.238,-0.511c-0.126,-0.458 -0.055,-0.958 0.195,-1.362c0.1,-0.161 0.225,-0.304 0.371,-0.424c0.073,-0.06 0.151,-0.114 0.233,-0.161c0.157,-0.09 0.296,-0.134 0.461,-0.196c0.135,-0.051 0.269,-0.102 0.404,-0.153c0.2,-0.078 0.401,-0.156 0.601,-0.235c1.118,-0.446 2.224,-0.924 3.311,-1.442c2.178,-1.037 4.284,-2.226 6.282,-3.576c1.945,-1.314 3.787,-2.781 5.488,-4.399c1.929,-1.834 3.675,-3.861 5.192,-6.049c1.596,-2.303 2.936,-4.78 4.005,-7.37c1.113,-2.7 1.932,-5.517 2.484,-8.384c0.42,-2.178 0.687,-4.384 0.821,-6.598c0.05,-0.835 0.082,-1.67 0.096,-2.506c0.008,-0.475 0.009,-0.949 0.009,-1.423c-0.002,-1.394 -0.048,-2.788 -0.148,-4.179c-0.21,-2.91 -0.652,-5.806 -1.37,-8.635c-0.713,-2.811 -1.701,-5.555 -2.984,-8.157c-1.31,-2.655 -2.926,-5.157 -4.821,-7.433c-1.26,-1.513 -2.642,-2.926 -4.123,-4.223c-1.168,-1.023 -2.397,-1.975 -3.676,-2.854c-0.847,-0.582 -1.715,-1.132 -2.602,-1.651c-5.006,-2.927 -10.561,-4.83 -16.234,-5.964c-0.876,-0.176 -1.755,-0.333 -2.636,-0.472c-1.019,-0.162 -2.042,-0.301 -3.067,-0.419c-1.414,-0.162 -2.833,-0.284 -4.254,-0.369c-1.603,-0.096 -3.209,-0.141 -4.815,-0.151c-20.898,-0.043 -41.796,-0.001 -62.694,-0.001ZM930.447,235.682c0.947,0.005 1.894,0.033 2.839,0.093c0.794,0.05 1.587,0.122 2.376,0.217c0.6,0.073 1.199,0.16 1.795,0.261c3.26,0.557 6.476,1.573 9.328,3.273c0.401,0.239 0.794,0.492 1.178,0.758c0.493,0.341 0.97,0.704 1.43,1.089c0.942,0.791 1.807,1.674 2.573,2.638c0.798,1.005 1.487,2.096 2.055,3.247c0.546,1.105 0.981,2.263 1.311,3.449c0.578,2.072 0.837,4.225 0.86,6.374c0.008,0.731 0.002,1.463 -0.04,2.193c-0.072,1.228 -0.236,2.451 -0.504,3.651c-0.414,1.859 -1.08,3.661 -2.003,5.328c-0.955,1.724 -2.181,3.292 -3.617,4.64c-0.633,0.594 -1.306,1.146 -2.011,1.653c-0.607,0.438 -1.238,0.842 -1.888,1.214c-3.419,1.955 -7.303,2.979 -11.202,3.375c-0.575,0.058 -1.152,0.103 -1.729,0.135c-0.776,0.044 -1.553,0.063 -2.331,0.064l-31.217,0c-0.264,-0.023 -0.335,-0.011 -0.587,-0.103c-0.473,-0.172 -0.854,-0.553 -1.026,-1.026c-0.092,-0.252 -0.081,-0.324 -0.104,-0.587l0,-40.22c0.023,-0.264 0.012,-0.336 0.104,-0.587c0.172,-0.473 0.553,-0.854 1.026,-1.026c0.252,-0.092 0.323,-0.081 0.587,-0.104c10.266,0 20.531,-0.017 30.797,0.001ZM901.367,239.115l0,36.786c9.945,0 19.89,0.061 29.835,-0.001c0.814,-0.009 1.629,-0.039 2.441,-0.099c0.669,-0.049 1.337,-0.118 2.002,-0.207c0.49,-0.067 0.979,-0.144 1.465,-0.234c2.861,-0.53 5.672,-1.495 8.129,-3.074c0.327,-0.21 0.647,-0.431 0.959,-0.662c0.426,-0.316 0.838,-0.652 1.233,-1.007c1.282,-1.155 2.374,-2.516 3.21,-4.027c0.783,-1.414 1.34,-2.948 1.681,-4.527c0.196,-0.902 0.322,-1.819 0.386,-2.74c0.035,-0.505 0.052,-1.011 0.052,-1.517c0.001,-0.372 0.001,-0.745 -0.009,-1.117c-0.048,-1.707 -0.267,-3.414 -0.726,-5.061c-0.273,-0.979 -0.631,-1.936 -1.082,-2.849c-0.396,-0.801 -0.863,-1.567 -1.397,-2.283c-0.573,-0.769 -1.224,-1.481 -1.936,-2.123c-0.335,-0.303 -0.684,-0.591 -1.044,-0.863c-2.272,-1.72 -4.966,-2.808 -7.722,-3.47c-0.461,-0.111 -0.925,-0.21 -1.391,-0.299c-0.581,-0.11 -1.166,-0.204 -1.752,-0.283c-0.768,-0.103 -1.54,-0.18 -2.314,-0.235c-0.926,-0.067 -1.855,-0.099 -2.783,-0.107c-9.746,-0.052 -19.492,-0.001 -29.237,-0.001Z" style="fill:#fff;fill-rule:nonzero;"/>
  </g>
</svg>